<svg xmlns="http://www.w3.org/2000/svg" width="23.822" height="22.332" viewBox="0 0 23.822 22.332">
    <g id="browser" transform="translate(-.001 -16.013)">
        <path id="Path_42263" fill="#f77e0b" d="M23.6 26.279l-9.254-9.259a3.448 3.448 0 0 0-4.87 0L.219 26.279a.744.744 0 0 0 1.052 1.053l.59-.59V36.2A2.14 2.14 0 0 0 4 38.345h3.724a.465.465 0 0 0 .465-.465v-6.886a2.326 2.326 0 0 1 2.326-2.326h2.792a2.326 2.326 0 0 1 2.326 2.326v6.886a.465.465 0 0 0 .465.465h3.722a2.14 2.14 0 0 0 2.14-2.14v-9.464l.59.59a.744.744 0 0 0 1.05-1.052z" data-name="Path 42263"/>
    </g>
</svg>
