<svg xmlns="http://www.w3.org/2000/svg" width="26" height="26" viewBox="0 0 26 26">
    <defs>
        <style>
            .cls-1,.cls-5,.cls-6{fill:none}.cls-2{fill:#f77e0b}.cls-2,.cls-5,.cls-6{stroke:#000}.cls-2{stroke-width:.2px}.cls-5,.cls-6{stroke-linecap:round;stroke-linejoin:round}.cls-5{stroke-width:.8px}.cls-6{stroke-width:.6px}.cls-7{stroke:none}
        </style>
    </defs>
    <g id="Menu" transform="translate(778 -16989)">
        <path id="Rectangle_2417" d="M0 0H26V26H0z" class="cls-1" data-name="Rectangle 2417" transform="translate(-778 16989)"/>
        <g id="Group_7070" data-name="Group 7070" transform="translate(-1039.887 16791.652)">
            <g id="Rectangle_412" class="cls-2" data-name="Rectangle 412">
                <path d="M0 0H1.25V1.25H0z" class="cls-7" transform="translate(271.107 203.837)"/>
                <path d="M0.1 0.1H1.1500000000000001V1.1500000000000001H0.1z" class="cls-1" transform="translate(271.107 203.837)"/>
            </g>
            <g id="Rectangle_413" fill="#4bad16" stroke="#000" stroke-width="0.2px" data-name="Rectangle 413">
                <path d="M0 0H1.25V1.25H0z" class="cls-7" transform="translate(271.107 207.015)"/>
                <path d="M0.1 0.1H1.1500000000000001V1.1500000000000001H0.1z" class="cls-1" transform="translate(271.107 207.015)"/>
            </g>
            <g id="Rectangle_414" class="cls-2" data-name="Rectangle 414">
                <path d="M0 0H1.25V1.25H0z" class="cls-7" transform="translate(271.107 210.194)"/>
                <path d="M0.1 0.1H1.1500000000000001V1.1500000000000001H0.1z" class="cls-1" transform="translate(271.107 210.194)"/>
            </g>
            <path id="Path_21721" fill="#f77e0b" d="M-18253.455-11663.617s-3.068-.1-3.25 0-.416.31-.416 1.028v7.268a2.12 2.12 0 0 0 2.7 1.563c.6-.206 1.131-.577 1.152-2.244s-.186-7.615-.186-7.615z" data-name="Path 21721" transform="translate(18523.012 11872.867)"/>
            <g id="Group_3940" data-name="Group 3940" transform="translate(265.887 201.348)">
                <path id="Path_13173" d="M1589.5 880.144v-14.862a.783.783 0 0 1 .782-.782h11.733a.783.783 0 0 1 .782.782v14.862a2.347 2.347 0 0 1-2.347 2.347h-10.95" class="cls-5" data-name="Path 13173" transform="translate(-1585.589 -864.5)"/>
                <path id="Path_13174" d="M1586.455 884.669a1.955 1.955 0 0 1-1.955-1.956v-7.431a.782.782 0 0 1 .782-.782h3.129v8.213a1.955 1.955 0 0 1-1.956 1.956z" class="cls-5" data-name="Path 13174" transform="translate(-1584.5 -866.678)"/>
                <path id="Line_55" d="M3.911 0L0 0" class="cls-5" data-name="Line 55" transform="translate(2.347 17.991)"/>
                <path id="Line_56" d="M0 0L7.04 0" class="cls-6" data-name="Line 56" transform="translate(7.04 3.129)"/>
                <path id="Line_57" d="M0 0L7.04 0" class="cls-6" data-name="Line 57" transform="translate(7.04 6.258)"/>
                <path id="Line_58" d="M0 0L7.04 0" class="cls-6" data-name="Line 58" transform="translate(7.04 9.386)"/>
            </g>
        </g>
    </g>
</svg>
