<svg xmlns="http://www.w3.org/2000/svg" width="15.006" height="24.3" viewBox="0 0 15.006 24.3">
    <defs>
        <style>
            .cls-2{stroke:#000;stroke-width:.3px}
        </style>
    </defs>
    <g id="Mobile" transform="translate(-1087.116 -109.85)">
        <path id="Path_42278" fill="#f77e0b" d="M5485.218 120.323h13.082l.147 21.359s-.341 1.576-.893 1.272h-11.614s-.661.887-.722-1.272 0-21.359 0-21.359z" data-name="Path 42278" transform="translate(-4397.191 -9.924)"/>
        <g id="app" transform="translate(967.266 102)">
            <path id="Path_42240" d="M132.976 8H121.73A1.649 1.649 0 0 0 120 9.548v20.9A1.649 1.649 0 0 0 121.73 32h11.246a1.649 1.649 0 0 0 1.73-1.548V9.548A1.649 1.649 0 0 0 132.976 8zm-3.6.774l-.243.774h-3.606l-.216-.774zm4.464 21.677a.825.825 0 0 1-.865.774H121.73a.825.825 0 0 1-.865-.774V9.548a.825.825 0 0 1 .865-.774h2.69l.351 1.255a.426.426 0 0 0 .42.293h4.271a.428.428 0 0 0 .416-.282l.4-1.266h2.7a.825.825 0 0 1 .865.774z" class="cls-2" data-name="Path 42240"/>
            <path id="Path_42241" d="M155.1 456h-2.71a.387.387 0 0 0 0 .774h2.71a.387.387 0 1 0 0-.774z" class="cls-2" data-name="Path 42241" transform="translate(-26.389 -426.323)"/>
        </g>
    </g>
</svg>
