<svg xmlns="http://www.w3.org/2000/svg" width="26" height="26" viewBox="0 0 26 26">
    <defs>
        <style>
            .cls-1{fill:none}.cls-4{stroke:#000;stroke-width:.1px}
        </style>
    </defs>
    <g id="Orders" transform="translate(778 -16989)">
        <path id="Rectangle_2417" d="M0 0H26V26H0z" class="cls-1" data-name="Rectangle 2417" transform="translate(-778 16989)"/>
        <g id="Orders-2" data-name="Orders" transform="translate(-1085.586 16130.297)">
            <g id="Rectangle_2535" fill="#f77e0b" stroke="#000" stroke-width="0.1px" data-name="Rectangle 2535">
                <path stroke="none" d="M0 0H11V1H0z" transform="translate(316 871)"/>
                <path d="M0.05 0.05H10.950000000000001V0.9500000000000001H0.05z" class="cls-1" transform="translate(316 871)"/>
            </g>
            <path id="Path_39945" fill="#f77e0b" d="M5.683 2.131c.7-3.164 1.429.16 1.429.16A9.463 9.463 0 0 1 5.4 5.626a4.26 4.26 0 0 1-3.525 1.123 4.323 4.323 0 0 1-1.64-1.1s4.746-.355 5.448-3.518z" data-name="Path 39945" transform="rotate(-102 513.881 307.37)"/>
            <g id="menu_2_" data-name="menu (2)" transform="translate(311.464 862.703)">
                <path id="Path_39269" d="M18.434 14.771a.272.272 0 0 0 .272-.272V1.2a1.2 1.2 0 0 0-1.2-1.2H5.423a.272.272 0 1 0 0 .545h12.085a.655.655 0 0 1 .654.654v10.182H2.271V5.46h.177a1 1 0 0 0-.008-2h-.169V1.2a.655.655 0 0 1 .654-.655H3.9A.272.272 0 1 0 3.9 0h-.975a1.2 1.2 0 0 0-1.2 1.2v2.263H.385a.273.273 0 0 0 0 .545h2.049a.454.454 0 0 1 .012.908H.391a.273.273 0 0 0 0 .545h1.335v7.649H.48a.273.273 0 0 0 0 .545h2.049a.454.454 0 0 1 .012.908H.486a.273.273 0 0 0 0 .545h1.24V17.4a1.2 1.2 0 0 0 1.2 1.2h14.582a1.2 1.2 0 0 0 1.2-1.2v-1.391a.273.273 0 0 0-.545 0V17.4a.655.655 0 0 1-.654.654H2.925a.655.655 0 0 1-.654-.654v-2.294h.272a1 1 0 0 0-.014-2h-.258v-1.18h15.891V14.5a.272.272 0 0 0 .272.272z" class="cls-4" data-name="Path 39269"/>
                <path id="Path_39270" d="M148.731 381.58a.272.272 0 0 0-.272-.272h-9.587a.272.272 0 0 0 0 .545h9.587a.272.272 0 0 0 .272-.273z" class="cls-4" data-name="Path 39270" transform="translate(-133.448 -367.46)"/>
                <path id="Path_39271" fill="#f77e0b" stroke="#f77e0b" stroke-width="0.1px" d="M183.871 433.316a.272.272 0 0 0 0 .545h6.318a.272.272 0 0 0 0-.545z" data-name="Path 39271" transform="translate(-176.814 -417.58)"/>
                <path id="Path_39272" d="M118.69 74.51h10.056a.818.818 0 0 0 0-1.634h-.271a4.811 4.811 0 0 0-3.94-4.453v-.331a.818.818 0 0 0-1.634 0v.319a4.81 4.81 0 0 0-4.013 4.466h-.2a.818.818 0 0 0 .002 1.633zm4.756-6.418a.273.273 0 0 1 .545 0v.265a4.858 4.858 0 0 0-.545 0zm.236.8a4.262 4.262 0 0 1 4.248 3.985h-8.5a4.262 4.262 0 0 1 4.252-3.986zm-4.992 4.528h10.056a.273.273 0 0 1 0 .545H118.69a.273.273 0 0 1 0-.545z" class="cls-4" data-name="Path 39272" transform="translate(-113.502 -64.858)"/>
                <path id="Path_39273" d="M302.4 134.707a.273.273 0 0 0-.191.51 3.008 3.008 0 0 1 1.409 1.088.273.273 0 0 0 .445-.314 3.551 3.551 0 0 0-1.663-1.284z" class="cls-4" data-name="Path 39273" transform="translate(-290.95 -129.796)"/>
            </g>
        </g>
    </g>
</svg>
