<svg xmlns="http://www.w3.org/2000/svg" width="29.119" height="20.552" viewBox="0 0 29.119 20.552">
    <defs>
        <style>
            .cls-1{fill:#f77e0b}
        </style>
    </defs>
    <g id="Order_Online" data-name="Order Online" transform="translate(-4.79 -19.328)">
        <g id="Group_7078" data-name="Group 7078" transform="translate(4.79 19.328)">
            <path id="Path_38400" d="M108.473 36.553c.024-.4.049-.8.1-1.2a23.792 23.792 0 0 1 .516-2.85c.129-.466.269-.926.416-1.376.188-.439.371-.876.555-1.3a11.186 11.186 0 0 1 1.432-2.262c.131-.168.262-.33.389-.494l.432-.428a10.83 10.83 0 0 1 .849-.771 11.263 11.263 0 0 1 1.643-1.109 9.592 9.592 0 0 1 1.347-.673c.776-.312 1.216-.469 1.216-.469s-.376.3-1.032.782a14.437 14.437 0 0 0-1.126.928 17.053 17.053 0 0 0-1.33 1.3c-.24.239-.427.54-.654.817q-.166.212-.34.428c-.094.159-.192.319-.291.482a13.593 13.593 0 0 0-1.071 2.113q-.2.587-.412 1.189c-.1.417-.2.838-.317 1.258a22.734 22.734 0 0 0-.417 2.648c-.051.328-.076.659-.106.993 7.19 0 12.756.006 20.543.006.026-.341.041-.687.041-1.035a12.606 12.606 0 0 0-10.929-12.68 2.036 2.036 0 1 0-2.776 0 12.6 12.6 0 0 0-10.927 12.675c0 .346.012.688.038 1.028z" class="cls-1" data-name="Path 38400" transform="translate(-103.982 -19.328)"/>
            <path id="Rectangle_2178" d="M0 0H29.119V2.569H0z" class="cls-1" data-name="Rectangle 2178" transform="translate(0 17.984)"/>
        </g>
    </g>
</svg>
