<svg xmlns="http://www.w3.org/2000/svg" width="26" height="26" viewBox="0 0 26 26">
    <defs>
        <filter id="Ellipse_425" width="26" height="26" x="0" y="0" filterUnits="userSpaceOnUse">
            <feOffset dy="1"/>
            <feGaussianBlur result="blur" stdDeviation="1"/>
            <feFlood flood-opacity=".271"/>
            <feComposite in2="blur" operator="in"/>
            <feComposite in="SourceGraphic"/>
        </filter>
        <style>
            .cls-2{fill:#f77e0b;fill-rule:evenodd}
        </style>
    </defs>
    <g id="Slider" transform="translate(-189.414 -307.394)">
        <g filter="url(#Ellipse_425)" transform="translate(189.41 307.39)">
            <circle id="Ellipse_425-2" cx="10" cy="10" r="10" fill="#fff" data-name="Ellipse 425" transform="translate(3 2)"/>
        </g>
        <g id="Group_10825" data-name="Group 10825" transform="translate(193.118 310.19)">
            <path id="Path_39028" d="M458.612 272.4a6.879 6.879 0 1 0 6.879 6.879 6.886 6.886 0 0 0-6.879-6.879zm-1.258 10.675h-.643a1.9 1.9 0 0 1-1.895-1.895v-.643h.933v.643a.963.963 0 0 0 .961.961h.643zm0-6.659h-.643a.963.963 0 0 0-.961.962v.643h-.933v-.643a1.9 1.9 0 0 1 1.895-1.9h.643zm5.054 4.764a1.9 1.9 0 0 1-1.9 1.895h-.642v-.934h.642a.963.963 0 0 0 .962-.961v-.643h.933zm0-3.16h-.933v-.643a.963.963 0 0 0-.962-.962h-.642v-.933h.642a1.9 1.9 0 0 1 1.9 1.9z" class="cls-2" data-name="Path 39028" transform="translate(-449.26 -269.924)"/>
            <path id="Path_39029" d="M452.048 263.36a9.352 9.352 0 1 0 9.352 9.352 9.352 9.352 0 0 0-9.352-9.352zm0 17.052a7.7 7.7 0 1 1 7.7-7.7 7.709 7.709 0 0 1-7.7 7.7z" class="cls-2" data-name="Path 39029" transform="translate(-442.696 -263.36)"/>
        </g>
    </g>
</svg>
