<svg xmlns="http://www.w3.org/2000/svg" width="74.544" height="74.541" viewBox="0 0 74.544 74.541">
  <g id="Defult_User" data-name="Defult User" transform="translate(-1.28 -1.281)">
    <path id="Path_476" data-name="Path 476" d="M45.263,8A37.263,37.263,0,0,0,20.845,73.416V61.978A15.422,15.422,0,0,1,36.267,46.556H54.26A15.422,15.422,0,0,1,69.682,61.978V73.416A37.263,37.263,0,0,0,45.263,8Zm0,33.415A11.567,11.567,0,1,1,56.83,29.848,11.567,11.567,0,0,1,45.263,41.415Zm0,0" transform="translate(-6.712 -6.719)" fill="#f1f2f2"/>
    <path id="Path_477" data-name="Path 477" d="M194.805,85.4A13.4,13.4,0,1,1,181.4,72,13.4,13.4,0,0,1,194.805,85.4Zm0,0" transform="translate(-142.851 -62.274)" fill="#c7cbda"/>
    <path id="Path_478" data-name="Path 478" d="M121.415,248H103.422A15.422,15.422,0,0,0,88,263.422V274.86a37.235,37.235,0,0,0,48.837,0V263.422A15.422,15.422,0,0,0,121.415,248Zm0,0" transform="translate(-73.867 -208.163)" fill="#c7cbda"/>
  </g>
</svg>
