<svg xmlns="http://www.w3.org/2000/svg" width="145" height="46" viewBox="0 0 145 46">
    <defs>
        <style>
            .prefix__cls-4{fill:#fff}
        </style>
    </defs>
    <g id="prefix__App_store_Black" data-name="App store_Black" transform="translate(.323)">
        <rect id="prefix__Rectangle_350" width="145" height="46" fill="#323232" data-name="Rectangle 350" rx="6" transform="translate(-.323)"/>
        <text id="prefix__App_Store" fill="#fff" data-name="App Store" font-family="Poppins-Medium, Poppins" font-size="14px" font-weight="500" transform="translate(50.896 32.211)">
            <tspan x="0" y="0">App Store</tspan>
        </text>
        <text id="prefix__Download_on_the" fill="#fff" data-name="Download on the" font-family="Poppins-Medium, Poppins" font-size="7px" font-weight="500" transform="translate(50.896 16.146)">
            <tspan x="0" y="0">Download on the</tspan>
        </text>
        <g id="prefix__apple-logo" transform="translate(15.912 9.944)">
            <g id="prefix__Group_5953" data-name="Group 5953">
                <path id="prefix__Path_541" d="M57.873 118.423a5.914 5.914 0 0 1-1.072-3.463 5.535 5.535 0 0 1 1.009-3.215 10.064 10.064 0 0 1 1.771-1.833 8.009 8.009 0 0 0-1.616-1.553 5.679 5.679 0 0 0-3.308-1.009 8.765 8.765 0 0 0-2.687.528 7.778 7.778 0 0 1-2.221.528 9.993 9.993 0 0 1-2.143-.466 10.333 10.333 0 0 0-2.749-.466 5.362 5.362 0 0 0-4.411 2.236 9.215 9.215 0 0 0-1.755 5.809 15.923 15.923 0 0 0 2.283 7.812q2.314 4.023 4.675 4.023a5.615 5.615 0 0 0 2.05-.528 5.986 5.986 0 0 1 2.206-.512 6.869 6.869 0 0 1 2.345.5 7.181 7.181 0 0 0 2.174.5q1.988 0 3.992-3.044a14.992 14.992 0 0 0 1.91-3.883 4.725 4.725 0 0 1-2.453-1.964z" class="prefix__cls-4" data-name="Path 541" transform="translate(-38.692 -101.509)"/>
                <path id="prefix__Path_542" d="M236.978 4.908a6.375 6.375 0 0 0 1.445-2.143 5.924 5.924 0 0 0 .45-2.112c0-.041 0-.093-.008-.155s-.007-.114-.007-.155a1.484 1.484 0 0 1-.039-.171 1.451 1.451 0 0 0-.04-.172 6.191 6.191 0 0 0-3.879 2.3 7.084 7.084 0 0 0-1.211 3.991 8.679 8.679 0 0 0 1.615-.264 4.4 4.4 0 0 0 1.674-1.119z" class="prefix__cls-4" data-name="Path 542" transform="translate(-223.077)"/>
            </g>
        </g>
    </g>
</svg>
