<svg xmlns="http://www.w3.org/2000/svg" id="prefix__call_Icon" width="20" height="20" data-name="call Icon" viewBox="0 0 20 20">
    <defs>
        <style>
            .prefix__cls-2{fill:#5d5d5d;stroke:#5d5d5d;stroke-width:.4px}
        </style>
    </defs>
    <path id="prefix__Rectangle_2406" fill="none" d="M0 0H20V20H0z" data-name="Rectangle 2406"/>
    <g id="prefix__communications_1_" data-name="communications (1)" transform="translate(.061 .025)">
        <g id="prefix__Group_7819" data-name="Group 7819" transform="translate(1 1.018)">
            <g id="prefix__Group_7818" data-name="Group 7818">
                <path id="prefix__Path_39141" d="M18.483 14.868l-3.634-2.423a1.061 1.061 0 0 0-1.42.231l-1.059 1.36a.452.452 0 0 1-.58.122l-.2-.111a12.168 12.168 0 0 1-3.171-2.491 12.218 12.218 0 0 1-2.493-3.171l-.11-.2a.453.453 0 0 1 .12-.582L7.3 6.543a1.061 1.061 0 0 0 .231-1.42L5.1 1.489a1.055 1.055 0 0 0-1.422-.32l-1.52.913a2.143 2.143 0 0 0-.974 1.268c-.547 1.994-.136 5.435 4.933 10.5 4.032 4.032 7.034 5.116 9.1 5.116a5.3 5.3 0 0 0 1.406-.184 2.141 2.141 0 0 0 1.269-.977l.908-1.515a1.055 1.055 0 0 0-.317-1.422zm-.2 1.116l-.912 1.52a1.546 1.546 0 0 1-.913.707c-1.841.505-5.056.087-9.922-4.779s-5.28-8.083-4.775-9.924a1.549 1.549 0 0 1 .708-.914l1.52-.912a.458.458 0 0 1 .617.139L5.923 3.8l1.1 1.657a.46.46 0 0 1-.1.616L5.567 7.13a1.047 1.047 0 0 0-.277 1.344l.108.2a12.692 12.692 0 0 0 2.593 3.309 12.705 12.705 0 0 0 3.309 2.589l.2.108a1.047 1.047 0 0 0 1.34-.28l1.058-1.36a.461.461 0 0 1 .616-.1l3.634 2.423a.457.457 0 0 1 .139.62z" class="prefix__cls-2" data-name="Path 39141" transform="translate(-1 -1.018)"/>
                <path id="prefix__Path_39142" d="M282.927 69.922a5.092 5.092 0 0 1 5.086 5.086.3.3 0 0 0 .6 0 5.691 5.691 0 0 0-5.684-5.684.3.3 0 0 0 0 .6z" class="prefix__cls-2" data-name="Path 39142" transform="translate(-272.754 -66.929)"/>
                <path id="prefix__Path_39143" d="M282.927 121.122a3.3 3.3 0 0 1 3.291 3.291.3.3 0 1 0 .6 0 3.894 3.894 0 0 0-3.889-3.889.3.3 0 0 0 0 .6z" class="prefix__cls-2" data-name="Path 39143" transform="translate(-272.754 -116.334)"/>
                <path id="prefix__Path_39144" d="M282.927 172.322a1.5 1.5 0 0 1 1.5 1.5.3.3 0 1 0 .6 0 2.1 2.1 0 0 0-2.094-2.094.3.3 0 1 0 0 .6z" class="prefix__cls-2" data-name="Path 39144" transform="translate(-272.754 -165.739)"/>
            </g>
        </g>
    </g>
</svg>
