<svg xmlns="http://www.w3.org/2000/svg" width="29.999" height="26.367" viewBox="0 0 29.999 26.367">
    <defs>
        <style>
            .cls-1{fill:#f77e0b}
        </style>
    </defs>
    <g id="Cart">
        <path id="Path_42242" d="M9.665 17.578H25.6a.879.879 0 0 0 .845-.637l3.516-12.3a.879.879 0 0 0-.845-1.12H7.638L7.01.688A.879.879 0 0 0 6.152 0H.879a.879.879 0 1 0 0 1.758h4.568l3.173 14.28a2.636 2.636 0 0 0 1.047 5.056H25.6a.879.879 0 1 0 0-1.758H9.668a.879.879 0 0 1 0-1.758zm18.29-12.3L24.942 15.82H10.373L8.029 5.273zm0 0" class="cls-1" data-name="Path 42242"/>
        <path id="Path_42243" d="M150 362.637a2.637 2.637 0 1 0 2.637-2.637 2.64 2.64 0 0 0-2.637 2.637zm2.637-.879a.879.879 0 1 1-.879.879.88.88 0 0 1 .879-.879zm0 0" class="cls-1" data-name="Path 42243" transform="translate(-141.211 -338.906)"/>
        <path id="Path_42244" d="M362 362.637a2.637 2.637 0 1 0 2.637-2.637 2.64 2.64 0 0 0-2.637 2.637zm2.637-.879a.879.879 0 1 1-.879.879.88.88 0 0 1 .879-.879zm0 0" class="cls-1" data-name="Path 42244" transform="translate(-340.79 -338.906)"/>
    </g>
</svg>
