<svg xmlns="http://www.w3.org/2000/svg" width="115" height="68" viewBox="0 0 115 68">
    <defs>
        <style>
            .prefix__cls-1{fill:#d8d8d8}
        </style>
    </defs>
    <g id="prefix__Group_9191" data-name="Group 9191" transform="translate(-231.366 -1352.649)">
        <rect id="prefix__Rectangle_45" width="5" height="5" class="prefix__cls-1" data-name="Rectangle 45" rx="2.5" transform="translate(231.366 1352.649)"/>
        <rect id="prefix__Rectangle_53" width="5" height="5" class="prefix__cls-1" data-name="Rectangle 53" rx="2.5" transform="translate(231.366 1368.649)"/>
        <rect id="prefix__Rectangle_61" width="5" height="5" class="prefix__cls-1" data-name="Rectangle 61" rx="2.5" transform="translate(231.366 1384.649)"/>
        <rect id="prefix__Rectangle_69" width="5" height="5" class="prefix__cls-1" data-name="Rectangle 69" rx="2.5" transform="translate(231.366 1399.649)"/>
        <rect id="prefix__Rectangle_77" width="5" height="5" class="prefix__cls-1" data-name="Rectangle 77" rx="2.5" transform="translate(231.366 1415.649)"/>
        <rect id="prefix__Rectangle_47" width="5" height="5" class="prefix__cls-1" data-name="Rectangle 47" rx="2.5" transform="translate(262.366 1352.649)"/>
        <rect id="prefix__Rectangle_55" width="5" height="5" class="prefix__cls-1" data-name="Rectangle 55" rx="2.5" transform="translate(262.366 1368.649)"/>
        <rect id="prefix__Rectangle_63" width="5" height="5" class="prefix__cls-1" data-name="Rectangle 63" rx="2.5" transform="translate(262.366 1384.649)"/>
        <rect id="prefix__Rectangle_71" width="5" height="5" class="prefix__cls-1" data-name="Rectangle 71" rx="2.5" transform="translate(262.366 1399.649)"/>
        <rect id="prefix__Rectangle_79" width="5" height="5" class="prefix__cls-1" data-name="Rectangle 79" rx="2.5" transform="translate(262.366 1415.649)"/>
        <rect id="prefix__Rectangle_49" width="5" height="5" class="prefix__cls-1" data-name="Rectangle 49" rx="2.5" transform="translate(294.366 1352.649)"/>
        <rect id="prefix__Rectangle_57" width="5" height="5" class="prefix__cls-1" data-name="Rectangle 57" rx="2.5" transform="translate(294.366 1368.649)"/>
        <rect id="prefix__Rectangle_65" width="5" height="5" class="prefix__cls-1" data-name="Rectangle 65" rx="2.5" transform="translate(294.366 1384.649)"/>
        <rect id="prefix__Rectangle_73" width="5" height="5" class="prefix__cls-1" data-name="Rectangle 73" rx="2.5" transform="translate(294.366 1399.649)"/>
        <rect id="prefix__Rectangle_81" width="5" height="5" class="prefix__cls-1" data-name="Rectangle 81" rx="2.5" transform="translate(294.366 1415.649)"/>
        <rect id="prefix__Rectangle_51" width="5" height="5" class="prefix__cls-1" data-name="Rectangle 51" rx="2.5" transform="translate(325.366 1352.649)"/>
        <rect id="prefix__Rectangle_59" width="5" height="5" class="prefix__cls-1" data-name="Rectangle 59" rx="2.5" transform="translate(325.366 1368.649)"/>
        <rect id="prefix__Rectangle_67" width="5" height="5" class="prefix__cls-1" data-name="Rectangle 67" rx="2.5" transform="translate(325.366 1384.649)"/>
        <rect id="prefix__Rectangle_75" width="5" height="5" class="prefix__cls-1" data-name="Rectangle 75" rx="2.5" transform="translate(325.366 1399.649)"/>
        <rect id="prefix__Rectangle_83" width="5" height="5" class="prefix__cls-1" data-name="Rectangle 83" rx="2.5" transform="translate(325.366 1415.649)"/>
        <rect id="prefix__Rectangle_46" width="5" height="5" class="prefix__cls-1" data-name="Rectangle 46" rx="2.5" transform="translate(246.366 1352.649)"/>
        <rect id="prefix__Rectangle_54" width="5" height="5" class="prefix__cls-1" data-name="Rectangle 54" rx="2.5" transform="translate(246.366 1368.649)"/>
        <rect id="prefix__Rectangle_62" width="5" height="5" class="prefix__cls-1" data-name="Rectangle 62" rx="2.5" transform="translate(246.366 1384.649)"/>
        <rect id="prefix__Rectangle_70" width="5" height="5" class="prefix__cls-1" data-name="Rectangle 70" rx="2.5" transform="translate(246.366 1399.649)"/>
        <rect id="prefix__Rectangle_78" width="5" height="5" class="prefix__cls-1" data-name="Rectangle 78" rx="2.5" transform="translate(246.366 1415.649)"/>
        <rect id="prefix__Rectangle_48" width="5" height="5" class="prefix__cls-1" data-name="Rectangle 48" rx="2.5" transform="translate(278.366 1352.649)"/>
        <rect id="prefix__Rectangle_56" width="5" height="5" class="prefix__cls-1" data-name="Rectangle 56" rx="2.5" transform="translate(278.366 1368.649)"/>
        <rect id="prefix__Rectangle_64" width="5" height="5" class="prefix__cls-1" data-name="Rectangle 64" rx="2.5" transform="translate(278.366 1384.649)"/>
        <rect id="prefix__Rectangle_72" width="5" height="5" class="prefix__cls-1" data-name="Rectangle 72" rx="2.5" transform="translate(278.366 1399.649)"/>
        <rect id="prefix__Rectangle_80" width="5" height="5" class="prefix__cls-1" data-name="Rectangle 80" rx="2.5" transform="translate(278.366 1415.649)"/>
        <rect id="prefix__Rectangle_50" width="5" height="5" class="prefix__cls-1" data-name="Rectangle 50" rx="2.5" transform="translate(309.366 1352.649)"/>
        <rect id="prefix__Rectangle_58" width="5" height="5" class="prefix__cls-1" data-name="Rectangle 58" rx="2.5" transform="translate(309.366 1368.649)"/>
        <rect id="prefix__Rectangle_66" width="5" height="5" class="prefix__cls-1" data-name="Rectangle 66" rx="2.5" transform="translate(309.366 1384.649)"/>
        <rect id="prefix__Rectangle_74" width="5" height="5" class="prefix__cls-1" data-name="Rectangle 74" rx="2.5" transform="translate(309.366 1399.649)"/>
        <rect id="prefix__Rectangle_82" width="5" height="5" class="prefix__cls-1" data-name="Rectangle 82" rx="2.5" transform="translate(309.366 1415.649)"/>
        <rect id="prefix__Rectangle_52" width="5" height="5" class="prefix__cls-1" data-name="Rectangle 52" rx="2.5" transform="translate(341.366 1352.649)"/>
        <rect id="prefix__Rectangle_60" width="5" height="5" class="prefix__cls-1" data-name="Rectangle 60" rx="2.5" transform="translate(341.366 1368.649)"/>
        <rect id="prefix__Rectangle_68" width="5" height="5" class="prefix__cls-1" data-name="Rectangle 68" rx="2.5" transform="translate(341.366 1384.649)"/>
        <rect id="prefix__Rectangle_76" width="5" height="5" class="prefix__cls-1" data-name="Rectangle 76" rx="2.5" transform="translate(341.366 1399.649)"/>
        <rect id="prefix__Rectangle_84" width="5" height="5" class="prefix__cls-1" data-name="Rectangle 84" rx="2.5" transform="translate(341.366 1415.649)"/>
    </g>
</svg>
