<svg xmlns="http://www.w3.org/2000/svg" width="28" height="28" viewBox="0 0 28 28">
    <defs>
        <style>
            .prefix__cls-2{fill:#323232}
        </style>
    </defs>
    <g id="prefix__Whatsapp" transform="translate(0 -.371)">
        <g id="prefix__Rectangle_1017" fill="none" stroke="#323232" data-name="Rectangle 1017" transform="translate(0 .371)">
            <rect width="28" height="28" stroke="none" rx="14"/>
            <rect width="27" height="27" x=".5" y=".5" rx="13.5"/>
        </g>
        <g id="prefix__whatsapp-2" data-name="whatsapp" transform="translate(6.445 6.816)">
            <path id="prefix__Path_47119" d="M3.655 14.031A7.5 7.5 0 0 0 7.528 15.1a7.593 7.593 0 0 0 7.581-7.552 7.552 7.552 0 1 0-14.031 3.9L0 15.109zM.891 7.552a6.635 6.635 0 1 1 3.067 5.626l-.17-.109-2.479.731.731-2.479-.109-.17a6.666 6.666 0 0 1-1.041-3.6zm0 0" class="prefix__cls-2" data-name="Path 47119"/>
            <path id="prefix__Path_47120" d="M121.231 96.091a6.671 6.671 0 0 0 5.351 5.351 3.389 3.389 0 0 0 2.8-.438l.351-.351a.939.939 0 0 0 0-1.328l-1.405-1.406a.94.94 0 0 0-1.329 0l-.351.351a.625.625 0 0 1-.836 0l-1.4-1.461-.006-.006a.552.552 0 0 1 0-.78l.351-.351a.939.939 0 0 0 0-1.329l-1.405-1.406a.941.941 0 0 0-1.328 0l-.351.351a3.276 3.276 0 0 0-.438 2.8zm1.064-2.174c.369-.36.349-.367.39-.367a.054.054 0 0 1 .038.016c1.481 1.489 1.422 1.4 1.422 1.444a.053.053 0 0 1-.016.039l-.351.351a1.436 1.436 0 0 0 0 2.028l1.4 1.462.006.006a1.509 1.509 0 0 0 2.09 0l.351-.351a.055.055 0 0 1 .077 0c1.481 1.489 1.422 1.4 1.422 1.444a.053.053 0 0 1-.016.038l-.351.351a2.618 2.618 0 0 1-2.008.194 5.787 5.787 0 0 1-4.647-4.647 2.617 2.617 0 0 1 .192-2.007zm0 0" class="prefix__cls-2" data-name="Path 47120" transform="translate(-117.552 -89.931)"/>
        </g>
    </g>
</svg>
