<svg xmlns="http://www.w3.org/2000/svg" width="28" height="26" viewBox="0 0 28 26">
    <defs>
        <style>
            .cls-1{fill:none}.cls-4{stroke:#000;stroke-width:.1px}
        </style>
    </defs>
    <g id="Add_Photo" data-name="Add Photo" transform="translate(808 -16989)">
        <path id="Rectangle_2416" d="M0 0H26V26H0z" class="cls-1" data-name="Rectangle 2416" transform="translate(-808 16989)"/>
        <g id="Group_7828" data-name="Group 7828" transform="translate(2)">
            <path id="Rectangle_2416-2" d="M0 0H26V26H0z" class="cls-1" data-name="Rectangle 2416" transform="translate(-808 16989)"/>
            <path id="Path_39106" fill="#f77e0b" d="M5.683 2.131c.7-3.164 1.429.16 1.429.16A9.463 9.463 0 0 1 5.4 5.626a4.26 4.26 0 0 1-3.525 1.123 4.323 4.323 0 0 1-1.64-1.1s4.746-.355 5.448-3.518z" data-name="Path 39106" transform="rotate(-20 47806.126 10770.436)"/>
            <g id="Group_7499" data-name="Group 7499" transform="translate(127.531 148.218)">
                <g id="camera_1_" data-name="camera (1)" transform="translate(-934.531 16800.982)">
                    <g id="Group_7495" data-name="Group 7495" transform="translate(0 44.8)">
                        <g id="Group_7494" data-name="Group 7494">
                            <path id="Path_38994" d="M19.2 47.236a2.136 2.136 0 0 0-1.567-.661H14.5v-.038a1.7 1.7 0 0 0-.51-1.227 1.728 1.728 0 0 0-1.227-.51H7.1a1.741 1.741 0 0 0-1.756 1.737v.038H2.228a2.136 2.136 0 0 0-1.567.661A2.245 2.245 0 0 0 0 48.8v9.4a2.136 2.136 0 0 0 .661 1.567 2.245 2.245 0 0 0 1.567.661h15.407a2.136 2.136 0 0 0 1.567-.661 2.245 2.245 0 0 0 .661-1.567v-9.4a2.135 2.135 0 0 0-.663-1.564zm-.321 10.97h-.019a1.225 1.225 0 0 1-1.227 1.227H2.228A1.225 1.225 0 0 1 1 58.205V48.8a1.225 1.225 0 0 1 1.227-1.227h3.645a.508.508 0 0 0 .51-.51v-.548a.711.711 0 0 1 .736-.736h5.645a.711.711 0 0 1 .736.736v.548a.508.508 0 0 0 .51.51h3.644a1.225 1.225 0 0 1 1.228 1.227z" data-name="Path 38994" transform="translate(0 -44.8)"/>
                            <path id="Path_38995" d="M116.645 130.8a4.641 4.641 0 1 0 3.285 1.359 4.653 4.653 0 0 0-3.285-1.359zm2.568 7.231a3.647 3.647 0 0 1-5.136 0 3.609 3.609 0 0 1-1.057-2.568 3.69 3.69 0 0 1 1.057-2.568 3.609 3.609 0 0 1 2.568-1.057 3.69 3.69 0 0 1 2.568 1.057 3.609 3.609 0 0 1 1.057 2.568 3.533 3.533 0 0 1-1.058 2.568z" data-name="Path 38995" transform="translate(-106.713 -126.741)"/>
                            <circle id="Ellipse_367" cx=".925" cy=".925" r=".925" data-name="Ellipse 367" transform="translate(15.728 4.041)"/>
                        </g>
                    </g>
                </g>
                <g id="Ellipse_368" fill="#fff" stroke="#fff" stroke-width="0.7px" data-name="Ellipse 368" transform="translate(-920 16856)">
                    <circle cx="4.5" cy="4.5" r="4.5" stroke="none"/>
                    <circle cx="4.5" cy="4.5" r="4.15" class="cls-1"/>
                </g>
                <g id="more_2_" data-name="more (2)" transform="translate(-920.242 16855.758)">
                    <path id="Path_38997" d="M132.4 240.586h-4.1a.293.293 0 0 1 0-.586h4.1a.293.293 0 1 1 0 .586zm0 0" class="cls-4" data-name="Path 38997" transform="translate(-125.554 -235.503)"/>
                    <path id="Path_38998" d="M240.293 132.688a.293.293 0 0 1-.293-.288v-4.1a.293.293 0 1 1 .586 0v4.1a.293.293 0 0 1-.293.288zm0 0" class="cls-4" data-name="Path 38998" transform="translate(-235.503 -125.554)"/>
                </g>
            </g>
        </g>
    </g>
</svg>
