<svg xmlns="http://www.w3.org/2000/svg" width="26" height="26" viewBox="0 0 26 26">
    <defs>
        <style>
            .cls-2{fill:#f77e0b}.cls-3{fill:#fff}
        </style>
    </defs>
    <g id="Reservation" transform="translate(778 -16989)">
        <path id="Rectangle_2417" fill="none" d="M0 0H26V26H0z" data-name="Rectangle 2417" transform="translate(-778 16989)"/>
        <g id="Reservation-2" data-name="Reservation" transform="translate(-774 16993)">
            <path id="Path_39244" d="M24.74 72h-.62v1.24a.62.62 0 0 1-.62.62h-.62a.62.62 0 0 1-.62-.62V72H11.72v1.24a.62.62 0 0 1-.62.62h-.62a.62.62 0 0 1-.62-.62V72h-.62A1.24 1.24 0 0 0 8 73.24v3.72h17.98v-3.72A1.24 1.24 0 0 0 24.74 72zm-4.34 3.41h-6.82v-1.86h6.82z" class="cls-2" data-name="Path 39244" transform="translate(-7.69 -69.21)"/>
            <path id="Path_39245" d="M8 209.3a1.24 1.24 0 0 0 1.24 1.24h15.5a1.24 1.24 0 0 0 1.24-1.24V200H8z" class="cls-3" data-name="Path 39245" transform="translate(-7.69 -192.25)"/>
            <g id="Group_7927" data-name="Group 7927" transform="translate(2.17 .31)">
                <path id="Path_39246" d="M56.62 12.34h.62a.62.62 0 0 0 .62-.62v-3.1a.62.62 0 0 0-.62-.62h-.62a.62.62 0 0 0-.62.62v3.1a.62.62 0 0 0 .62.62z" class="cls-3" data-name="Path 39246" transform="translate(-56 -8)"/>
                <path id="Path_39247" d="M376.62 12.34h.62a.62.62 0 0 0 .62-.62v-3.1a.62.62 0 0 0-.62-.62h-.62a.62.62 0 0 0-.62.62v3.1a.62.62 0 0 0 .62.62z" class="cls-3" data-name="Path 39247" transform="translate(-363.6 -8)"/>
            </g>
            <path id="Path_39263" d="M0 .412h6.558v1.736H0z" class="cls-3" data-name="Path 39263" transform="translate(6.021 3.874)"/>
            <path id="Path_39262" d="M0 0h2.186l-.14 1.55H.133z" class="cls-2" data-name="Path 39262" transform="translate(6.021 9.301)"/>
            <g id="Group_7928" data-name="Group 7928">
                <path id="Path_39248" d="M17.05 2.48h-.31V.93a.931.931 0 0 0-.93-.93h-.62a.931.931 0 0 0-.93.93v1.55H4.34V.93A.931.931 0 0 0 3.41 0h-.62a.931.931 0 0 0-.93.93v1.55h-.31A1.552 1.552 0 0 0 0 4.03v13.02a1.552 1.552 0 0 0 1.55 1.55h15.5a1.552 1.552 0 0 0 1.55-1.55V4.03a1.552 1.552 0 0 0-1.55-1.55zM14.88.93a.31.31 0 0 1 .31-.31h.62a.31.31 0 0 1 .31.31v3.1a.31.31 0 0 1-.31.31h-.62a.31.31 0 0 1-.31-.31V.93zm-12.4 0a.31.31 0 0 1 .31-.31h.62a.31.31 0 0 1 .31.31v3.1a.31.31 0 0 1-.31.31h-.62a.31.31 0 0 1-.31-.31V.93zM1.55 3.1h.31v.93a.931.931 0 0 0 .93.93h.62a.931.931 0 0 0 .93-.93V3.1h9.92v.93a.931.931 0 0 0 .93.93h.62a.931.931 0 0 0 .93-.93V3.1h.31a.931.931 0 0 1 .93.93v3.41H.62V4.03a.931.931 0 0 1 .93-.93zm15.5 14.88H1.55a.931.931 0 0 1-.93-.93V8.06h17.36v8.99a.931.931 0 0 1-.93.93z" data-name="Path 39248"/>
                <path id="Path_39249" d="M144.31 106.48h6.82a.31.31 0 0 0 .31-.31v-1.86a.31.31 0 0 0-.31-.31h-6.82a.31.31 0 0 0-.31.31v1.86a.31.31 0 0 0 .31.31zm.31-1.86h6.2v1.24h-6.2z" data-name="Path 39249" transform="translate(-138.42 -99.97)"/>
                <path id="Path_39250" d="M50.17 232h-1.86a.31.31 0 0 0-.31.31v1.55a.31.31 0 0 0 .31.31h1.86a.31.31 0 0 0 .31-.31v-1.55a.31.31 0 0 0-.31-.31zm-.31 1.55h-1.24v-.93h1.24z" data-name="Path 39250" transform="translate(-46.14 -223.01)"/>
                <path id="Path_39251" d="M154.17 232h-1.86a.31.31 0 0 0-.31.31v1.55a.31.31 0 0 0 .31.31h1.86a.31.31 0 0 0 .31-.31v-1.55a.31.31 0 0 0-.31-.31zm-.31 1.55h-1.24v-.93h1.24z" data-name="Path 39251" transform="translate(-146.11 -223.01)"/>
                <path id="Path_39252" d="M264.31 234.17h1.86a.31.31 0 0 0 .31-.31v-1.55a.31.31 0 0 0-.31-.31h-1.86a.31.31 0 0 0-.31.31v1.55a.31.31 0 0 0 .31.31zm.31-1.55h1.24v.93h-1.24z" data-name="Path 39252" transform="translate(-253.77 -223.01)"/>
                <path id="Path_39253" d="M370.17 232h-1.86a.31.31 0 0 0-.31.31v1.55a.31.31 0 0 0 .31.31h1.86a.31.31 0 0 0 .31-.31v-1.55a.31.31 0 0 0-.31-.31zm-.31 1.55h-1.24v-.93h1.24z" data-name="Path 39253" transform="translate(-353.74 -223.01)"/>
                <path id="Path_39254" d="M50.17 312h-1.86a.31.31 0 0 0-.31.31v1.55a.31.31 0 0 0 .31.31h1.86a.31.31 0 0 0 .31-.31v-1.55a.31.31 0 0 0-.31-.31zm-.31 1.55h-1.24v-.93h1.24z" data-name="Path 39254" transform="translate(-46.14 -299.91)"/>
                <path id="Path_39255" d="M154.17 312h-1.86a.31.31 0 0 0-.31.31v1.55a.31.31 0 0 0 .31.31h1.86a.31.31 0 0 0 .31-.31v-1.55a.31.31 0 0 0-.31-.31zm-.31 1.55h-1.24v-.93h1.24z" data-name="Path 39255" transform="translate(-146.11 -299.91)"/>
                <path id="Path_39256" d="M264.31 314.17h1.86a.31.31 0 0 0 .31-.31v-1.55a.31.31 0 0 0-.31-.31h-1.86a.31.31 0 0 0-.31.31v1.55a.31.31 0 0 0 .31.31zm.31-1.55h1.24v.93h-1.24z" data-name="Path 39256" transform="translate(-253.77 -299.91)"/>
                <path id="Path_39257" d="M370.17 312h-1.86a.31.31 0 0 0-.31.31v1.55a.31.31 0 0 0 .31.31h1.86a.31.31 0 0 0 .31-.31v-1.55a.31.31 0 0 0-.31-.31zm-.31 1.55h-1.24v-.93h1.24z" data-name="Path 39257" transform="translate(-353.74 -299.91)"/>
                <path id="Path_39258" d="M50.17 392h-1.86a.31.31 0 0 0-.31.31v1.55a.31.31 0 0 0 .31.31h1.86a.31.31 0 0 0 .31-.31v-1.55a.31.31 0 0 0-.31-.31zm-.31 1.55h-1.24v-.93h1.24z" data-name="Path 39258" transform="translate(-46.14 -376.81)"/>
                <path id="Path_39259" d="M154.17 392h-1.86a.31.31 0 0 0-.31.31v1.55a.31.31 0 0 0 .31.31h1.86a.31.31 0 0 0 .31-.31v-1.55a.31.31 0 0 0-.31-.31zm-.31 1.55h-1.24v-.93h1.24z" data-name="Path 39259" transform="translate(-146.11 -376.81)"/>
                <path id="Path_39260" d="M259.472 388.479l-.69-.69-.438.438.93.93a.308.308 0 0 0 .219.091h.014a.312.312 0 0 0 .224-.111l1.55-1.86-.476-.4z" data-name="Path 39260" transform="translate(-248.333 -371.888)"/>
                <path id="Path_39261" d="M355.472 388.479l-.69-.69-.438.438.93.93a.308.308 0 0 0 .219.091h.014a.312.312 0 0 0 .224-.111l1.55-1.86-.476-.4z" data-name="Path 39261" transform="translate(-340.613 -371.888)"/>
            </g>
        </g>
    </g>
</svg>
