<svg xmlns="http://www.w3.org/2000/svg" width="30.197" height="23.397" viewBox="0 0 30.197 23.397">
    <defs>
        <style>
            .cls-1{fill:#f77e0b}
        </style>
    </defs>
    <g id="XMLID_1321_" transform="translate(0 -57.647)">
        <g id="XMLID_396_" transform="translate(0 57.647)">
            <path id="XMLID_429_" d="M30.007 65.6l-.787-1.362-2.654-4.6-.744-1.288a1.411 1.411 0 0 0-1.926-.516l-2.08 1.2a1.4 1.4 0 0 0-.638.793h-5.9a3.079 3.079 0 0 0-2.192.908l-.6.6a6.977 6.977 0 0 0-1.618-.191h-1.83a1.405 1.405 0 0 0-.659-.868l-2.08-1.2a1.41 1.41 0 0 0-1.926.516L.189 66.845a1.41 1.41 0 0 0 .516 1.925l2.08 1.2a1.4 1.4 0 0 0 .7.189 1.419 1.419 0 0 0 .259-.024l1.7 1.7a2.145 2.145 0 0 0-.04.41 2.119 2.119 0 0 0 2 2.117 2.155 2.155 0 0 0-.012.224 2.122 2.122 0 0 0 2.122 2.122h.046v.046a2.122 2.122 0 0 0 2.122 2.122h.046v.046a2.122 2.122 0 0 0 3.622 1.5l.839-.839a2.108 2.108 0 0 0 .518-.848A2.123 2.123 0 0 0 20 77.657a2.123 2.123 0 0 0 3.236-1.35 2.122 2.122 0 0 0 2.164-3.514l-1.376-1.376L26.54 68.9a1.419 1.419 0 0 0 .168.01 1.4 1.4 0 0 0 .7-.189l2.08-1.2a1.41 1.41 0 0 0 .516-1.926zM6.589 72.248a.936.936 0 0 1 .276-.666l.509-.509a.942.942 0 1 1 1.332 1.332l-.509.509a.942.942 0 0 1-1.608-.666zm2.934 3.283a.942.942 0 0 1-.666-1.608l.839-.839a.942.942 0 1 1 1.332 1.332l-.839.839a.936.936 0 0 1-.666.277zm2.166 2.169a.942.942 0 0 1-.666-1.608l.839-.839a.942.942 0 1 1 1.332 1.332l-.839.839a.936.936 0 0 1-.666.276zm3.672 1.052l-.839.839a.942.942 0 1 1-1.332-1.332l.839-.839a.942.942 0 1 1 1.332 1.332zm9.209-3.79a.942.942 0 0 1-1.332 0l-5.63-5.632a.59.59 0 1 0-.834.834l5.048 5.048a.942.942 0 0 1-1.332 1.332l-6.066-6.066a.59.59 0 0 0-.834.834l5.048 5.048a.942.942 0 1 1-1.332 1.332l-1.11-1.11a2.115 2.115 0 0 0-1.542-.615v-.047a2.119 2.119 0 0 0-2.168-2.12v-.047a2.12 2.12 0 0 0-2.324-2.111 2.122 2.122 0 0 0-3.62-1.4l-.509.509-1.31-1.31 4.105-7.111h2.044a5.79 5.79 0 0 1 .6.031l-.674.674a2.122 2.122 0 0 0 3 3l1.592-1.592 9.184 9.184a.943.943 0 0 1 0 1.332zm-5.67-8.669a3.347 3.347 0 0 0 1.384-2.712.59.59 0 1 0-1.18 0 2.167 2.167 0 0 1-1.056 1.861l-2.246-2.246a.589.589 0 0 0-.834-.006L12.96 65.2a.942.942 0 1 1-1.332-1.332l2.3-2.3a1.907 1.907 0 0 1 1.358-.562h6.045l4.158 7.2.031.05-2.323 2.323z" class="cls-1" transform="translate(0 -57.647)"/>
            <path id="XMLID_436_" d="M454.9 126.594a.59.59 0 1 0-.417-.173.6.6 0 0 0 .417.173z" class="cls-1" transform="translate(-427.515 -121.417)"/>
        </g>
    </g>
</svg>
