<svg xmlns="http://www.w3.org/2000/svg" id="prefix__Direction_icon" width="22.068" height="22.068" data-name="Direction icon" viewBox="0 0 22.068 22.068">
    <defs>
        <style>
            .prefix__cls-3{stroke:none}
        </style>
    </defs>
    <g id="prefix__Rectangle_2186" fill="none" stroke="#5d5d5d" data-name="Rectangle 2186" transform="rotate(-45 13.32 5.517)">
        <rect width="15.605" height="15.605" class="prefix__cls-3" rx="3"/>
        <rect width="14.605" height="14.605" x=".5" y=".5" rx="2.5"/>
    </g>
    <g id="prefix__Page-1" transform="translate(6.999 8.022)">
        <g id="prefix___008---Left-Turn-Arrow" data-name="008---Left-Turn-Arrow" transform="translate(.64)">
            <g id="prefix__Shape" fill="#5d5d5d">
                <path d="M3.5 7.097H1.613c-.05 0-.089-.036-.09-.08V2.47c0-.307.127-.595.356-.813.228-.215.543-.34.865-.34l4.268.04.1.001V.184c0-.029.018-.055.045-.068.013-.006.027-.01.042-.01.019 0 .037.006.052.016l3.213 2.141c.02.014.033.038.033.062s-.013.048-.035.063l-.832.557-1.85 1.24-.529.354c-.015.01-.033.016-.052.016-.015 0-.029-.004-.042-.01-.027-.014-.044-.04-.044-.067V3.304h-.099l-3.137-.04c-.16 0-.29.125-.29.28v3.474c0 .043-.04.079-.089.079z" class="prefix__cls-3" transform="translate(-1.637 -.006)"/>
                <path fill="#fff" d="M7.214.217v1.242l-.202-.002-4.267-.04c-.297 0-.587.115-.796.313-.209.198-.324.461-.324.74v4.527h1.863V3.543c0-.209.175-.379.391-.379l3.137.04.198.002v1.238l.51-.343 1.851-1.24.802-.536L7.214.217M7.2.007c.038 0 .076.01.108.032L10.52 2.18c.049.034.078.088.078.145 0 .057-.029.111-.078.145l-.834.558-1.85 1.24-.528.354c-.032.022-.07.033-.108.033-.03 0-.059-.007-.086-.02-.062-.03-.1-.092-.1-.158V3.404l-3.137-.04c-.104 0-.189.08-.189.18v3.474c0 .099-.084.179-.188.179H1.614c-.105 0-.189-.08-.19-.179V2.47c0-.332.14-.65.388-.885.247-.235.583-.367.933-.367l4.269.04V.183c0-.066.038-.127.1-.158.027-.013.057-.02.086-.02z" transform="translate(-1.637 -.006)"/>
            </g>
        </g>
    </g>
</svg>
