<svg xmlns="http://www.w3.org/2000/svg" width="146.933" height="34.508" viewBox="0 0 146.933 34.508">
    <defs>
        <style>
            .prefix__cls-1,.prefix__cls-2{fill:#f77e0b}.prefix__cls-2{fill-rule:evenodd}
        </style>
    </defs>
    <g id="prefix__Header_Logo" data-name="Header Logo" transform="translate(-270.725 -262.36)">
        <path id="prefix__Path_39024" d="M270.725 264.6a1.022 1.022 0 0 1 .26-.756 1.006 1.006 0 0 1 .688-.282H293.1q1.036 0 1.037 1.082v3.924a1.122 1.122 0 0 1-.271.733.94.94 0 0 1-.766.327h-15.812v9.022h3.676q1.15 0 2.391.011t2.391.011h3.677a1.074 1.074 0 0 1 .7.237.943.943 0 0 1 .294.778v3.834a1.143 1.143 0 0 1-.26.733.855.855 0 0 1-.71.327h-12.159v11.525q0 .948-1.06.948h-4.6a.844.844 0 0 1-.9-.948z" class="prefix__cls-1" data-name="Path 39024" transform="translate(0 -.613)"/>
        <path id="prefix__Path_39025" d="M317.741 296.218a7.192 7.192 0 0 1 .259-.834c.1-.256.184-.489.259-.7l12.158-30.267a1.335 1.335 0 0 1 .371-.553 1.115 1.115 0 0 1 .824-.3h3.631a.986.986 0 0 1 .778.27 2.842 2.842 0 0 1 .349.473l.744 1.76 11.909 29.794a1.358 1.358 0 0 0 .033.237 1.431 1.431 0 0 1 .034.282q0 .677-.992.677h-4.443a1.259 1.259 0 0 1-.767-.2 1.48 1.48 0 0 1-.45-.632l-.406-1.037-.856-2.165q-.43-1.082-.835-2.188h-13.916q-.587 1.579-1.139 2.966t-.936 2.424a1.166 1.166 0 0 1-1.173.835h-4.511a1.306 1.306 0 0 1-.688-.158.516.516 0 0 1-.26-.473.67.67 0 0 1 .023-.211zm15.7-24.065q-1.218 3.113-2.424 6.45t-2.425 6.428h9.608z" class="prefix__cls-1" data-name="Path 39025" transform="translate(-24.011 -.613)"/>
        <path id="prefix__Path_39026" d="M391.773 296.4c-.166-.316-.316-.635-.452-.959s-.269-.658-.405-1l-11.841-29.658a.792.792 0 0 0-.034-.192 1.183 1.183 0 0 1-.033-.3q0-.722.924-.721h4.828a1.17 1.17 0 0 1 1.173.857q.5 1.42 1.207 3.326t1.511 4.037q.8 2.131 1.647 4.364t1.647 4.331q.8 2.1 1.488 3.935t1.162 3.146q.5-1.307 1.173-3.146t1.454-3.935q.78-2.1 1.613-4.331t1.624-4.364q.789-2.131 1.5-4.037t1.229-3.326a1.2 1.2 0 0 1 1.218-.857h4.736q1.016 0 1.016.744a1.263 1.263 0 0 1-.034.293.917.917 0 0 0-.034.18l-11.818 29.658q-.181.453-.361.913a8.7 8.7 0 0 1-.405.892 1.259 1.259 0 0 1-.834.7 5.912 5.912 0 0 1-1.24.113h-2.594a1.051 1.051 0 0 1-.733-.2 1.432 1.432 0 0 1-.332-.463z" class="prefix__cls-1" data-name="Path 39026" transform="translate(-55.326 -.613)"/>
        <path id="prefix__Path_39027" d="M539.273 271.878a1.036 1.036 0 0 1-.541-.147 5.167 5.167 0 0 1-.563-.394l-.045-.022a11.6 11.6 0 0 0-1.105-.947 11.4 11.4 0 0 0-1.511-.97 10.973 10.973 0 0 0-1.793-.766 6.2 6.2 0 0 0-1.951-.316 8.057 8.057 0 0 0-2.233.282 5.1 5.1 0 0 0-1.624.767 3.3 3.3 0 0 0-.993 1.139 3.007 3.007 0 0 0-.338 1.4 2.151 2.151 0 0 0 .508 1.421 4.667 4.667 0 0 0 1.376 1.083 13.386 13.386 0 0 0 2 .869q1.128.395 2.368.778 1.421.428 2.819.924a26.124 26.124 0 0 1 2.673 1.117 18.823 18.823 0 0 1 2.379 1.376 8.994 8.994 0 0 1 1.901 1.728 7.925 7.925 0 0 1 1.264 2.187 7.559 7.559 0 0 1 .462 2.718 9.807 9.807 0 0 1-.992 4.443 10.14 10.14 0 0 1-2.741 3.394 12.583 12.583 0 0 1-4.105 2.166 16.5 16.5 0 0 1-5.063.756 14.938 14.938 0 0 1-3.451-.406 16.752 16.752 0 0 1-3.292-1.151 17.482 17.482 0 0 1-2.989-1.793 14.97 14.97 0 0 1-2.515-2.357v.022l-.045-.09a1.645 1.645 0 0 1-.5-1.037.9.9 0 0 1 .136-.474 2.748 2.748 0 0 1 .405-.5l.745-.744q.338-.293.721-.654a9.716 9.716 0 0 1 .768-.653 8.4 8.4 0 0 1 .71-.5 1.1 1.1 0 0 1 .53-.2.958.958 0 0 1 .586.2 4.3 4.3 0 0 1 .451.383l.09.09h-.023a14.929 14.929 0 0 0 1.771 1.42 17.752 17.752 0 0 0 2.018 1.207 12.173 12.173 0 0 0 2.063.834 6.785 6.785 0 0 0 1.929.3 8.251 8.251 0 0 0 2.323-.315 6 6 0 0 0 1.872-.891 4.275 4.275 0 0 0 1.241-1.387 3.653 3.653 0 0 0 .451-1.8 2.592 2.592 0 0 0-.586-1.7 5.333 5.333 0 0 0-1.534-1.24 11.776 11.776 0 0 0-2.132-.914q-1.183-.384-2.379-.722a35.789 35.789 0 0 1-4.816-1.8 14.618 14.618 0 0 1-3.44-2.176 8.084 8.084 0 0 1-2.064-2.706 7.994 7.994 0 0 1-.688-3.372 8.383 8.383 0 0 1 3.248-6.777 11.562 11.562 0 0 1 3.744-1.917 16.277 16.277 0 0 1 4.895-.689 14.334 14.334 0 0 1 4.172.643 16.284 16.284 0 0 1 3.925 1.77q.541.338 1.105.767t1.037.869a6.112 6.112 0 0 1 .779.857 1.294 1.294 0 0 1 .3.711 1.27 1.27 0 0 1-.136.553 2.174 2.174 0 0 1-.337.507l-.677.721v-.022l-.7.744a8.6 8.6 0 0 1-.722.688c-.24.2-.459.372-.654.507a.931.931 0 0 1-.487.208z" class="prefix__cls-1" data-name="Path 39027" transform="translate(-126.667)"/>
        <g id="prefix__Group_7575" data-name="Group 7575" transform="translate(354.829 262.849)">
            <path id="prefix__Path_39028" d="M464.025 272.4a12.291 12.291 0 1 0 12.292 12.291 12.305 12.305 0 0 0-12.292-12.291zm-2.248 19.074h-1.149a3.39 3.39 0 0 1-3.386-3.386v-1.148h1.668v1.148a1.72 1.72 0 0 0 1.718 1.718h1.149zm0-11.9h-1.149a1.72 1.72 0 0 0-1.718 1.719v1.148h-1.668v-1.148a3.39 3.39 0 0 1 3.386-3.386h1.149zm9.031 8.513a3.389 3.389 0 0 1-3.386 3.386h-1.148V289.8h1.148a1.72 1.72 0 0 0 1.719-1.718v-1.148h1.668zm0-5.646h-1.668v-1.148a1.72 1.72 0 0 0-1.719-1.719h-1.148v-1.668h1.148a3.39 3.39 0 0 1 3.386 3.386z" class="prefix__cls-2" data-name="Path 39028" transform="translate(-447.313 -267.978)"/>
            <path id="prefix__Path_39029" d="M459.407 263.36a16.711 16.711 0 1 0 16.711 16.711 16.711 16.711 0 0 0-16.711-16.711zm0 30.469a13.758 13.758 0 1 1 13.759-13.758 13.774 13.774 0 0 1-13.759 13.758z" class="prefix__cls-2" data-name="Path 39029" transform="translate(-442.696 -263.36)"/>
        </g>
    </g>
</svg>
