<svg xmlns="http://www.w3.org/2000/svg" id="heart" width="32.063" height="29.603" viewBox="0 0 32.063 29.603">
    <defs>
        <style>
            .cls-2{fill:#fff}.cls-3{fill:#343434}
        </style>
    </defs>
    <path id="Path_21927" fill="#f77e0b" d="M25.115 34.5a8.065 8.065 0 0 1 7.395-5.011c4.455 0 7.663 3.811 8.066 8.353a8.312 8.312 0 0 1-.261 3.157 13.955 13.955 0 0 1-4.254 7.094l-10.946 9.761-10.761-9.766a13.955 13.955 0 0 1-4.254-7.094 8.311 8.311 0 0 1-.261-3.157c.4-4.542 3.611-8.352 8.066-8.352a7.816 7.816 0 0 1 7.21 5.015z" data-name="Path 21927" transform="translate(-9.176 -28.867)"/>
    <path id="Path_21928" d="M27.347 34.447c1.32-2.922 2.635-4.964 6.143-4.964 4.724 0 8.126 3.775 8.554 8.274a7.712 7.712 0 0 1-.277 3.128 13.687 13.687 0 0 1-4.511 7.027l-9.908 9.673-11.413-9.673a13.237 13.237 0 0 1-4.249-7.027 7.712 7.712 0 0 1-.277-3.128c.428-4.5 3.567-8.274 8.291-8.274a8.288 8.288 0 0 1 7.647 4.964z" class="cls-2" data-name="Path 21928" transform="translate(-10.646 -28.599)"/>
    <path id="Path_21929" d="M11.406 37.845c.4-4.542 3.611-8.353 8.066-8.353a7.839 7.839 0 0 1 .871.054c-3.992.466-6.809 4.063-7.185 8.3A8.31 8.31 0 0 0 13.419 41a13.956 13.956 0 0 0 4.255 7.1l9.274 9.693-.08.073L15.921 48.1a13.955 13.955 0 0 1-4.254-7.1 8.311 8.311 0 0 1-.261-3.155z" class="cls-2" data-name="Path 21929" transform="translate(-10.645 -28.875)"/>
    <g id="Group_3989" data-name="Group 3989">
        <path id="Path_21930" d="M15.939 49.239a.614.614 0 0 1-.414-.16L4.763 39.313A14.491 14.491 0 0 1 .323 31.9a9.174 9.174 0 0 1-.273-3.374c.468-5.152 4.115-8.89 8.678-8.89a8.314 8.314 0 0 1 7.214 4.264 8.628 8.628 0 0 1 7.391-4.259c4.563 0 8.21 3.738 8.678 8.89a9.174 9.174 0 0 1-.273 3.378 14.5 14.5 0 0 1-4.44 7.409L16.35 49.082a.617.617 0 0 1-.411.157zm-7.21-28.37c-3.917 0-7.051 3.276-7.452 7.79a.544.544 0 0 1-.009.062 8.011 8.011 0 0 0 .257 2.9A13.259 13.259 0 0 0 5.592 38.4l10.351 9.394 10.531-9.4a13.256 13.256 0 0 0 4.064-6.775 7.974 7.974 0 0 0 .255-2.9c-.409-4.572-3.543-7.849-7.46-7.849a7.45 7.45 0 0 0-6.826 4.63.616.616 0 0 1-1.136 0 7.229 7.229 0 0 0-6.643-4.631z" class="cls-3" data-name="Path 21930" transform="translate(.001 -19.636)"/>
        <path id="Path_21931" d="M59.638 86.266a.616.616 0 0 1-.617-.617 6.175 6.175 0 0 1 6.167-6.167.617.617 0 0 1 0 1.233 4.94 4.94 0 0 0-4.934 4.934.616.616 0 0 1-.617.617z" class="cls-3" data-name="Path 21931" transform="translate(-55.324 -75.733)"/>
    </g>
</svg>
