<svg xmlns="http://www.w3.org/2000/svg" width="25" height="25" viewBox="0 0 25 25">
    <defs>
        <style>
            .cls-2{fill:#fff}
        </style>
    </defs>
    <g id="feedback" transform="translate(-912 -391)">
        <path id="Rectangle_7210" fill="none" d="M0 0H25V25H0z" data-name="Rectangle 7210" transform="translate(912 391)"/>
        <g id="Group_12570" data-name="Group 12570" transform="translate(-95.301 67.391)">
            <g id="feedback-2" data-name="feedback" transform="translate(1010.301 328.609)">
                <g id="Group_7174" data-name="Group 7174">
                    <g id="Group_7173" data-name="Group 7173">
                        <path id="Path_38456" d="M107.045 128.757h8.333a.379.379 0 1 0 0-.758h-8.333a.379.379 0 1 0 0 .758z" class="cls-2" data-name="Path 38456" transform="translate(-102.878 -124.211)"/>
                        <path id="Path_38457" d="M111.59 256h-4.545a.379.379 0 0 0 0 .758h4.545a.379.379 0 0 0 0-.758z" class="cls-2" data-name="Path 38457" transform="translate(-102.878 -247.667)"/>
                        <path id="Path_38458" fill="#f77e0b" d="M16.731 22.848c-.022 0-.043.006-.065.007v-.007a1.517 1.517 0 0 0-1.515-1.515H1.515A1.517 1.517 0 0 0 0 22.848V37.62a.379.379 0 0 0 .234.35.374.374 0 0 0 .145.03.379.379 0 0 0 .268-.111l3.677-3.677h10.827a1.517 1.517 0 0 0 1.515-1.512v-6.286l1.09-1.09a1.45 1.45 0 0 0-1.025-2.475zm-3.907 6.628l-1.357.086v-1.323l3.577-3.451 1.362 1.332zm4.4-4.688l-.555.555-.98-.98.555-.555a.693.693 0 0 1 .98.98z" data-name="Path 38458" transform="translate(0 -21.333)"/>
                    </g>
                </g>
            </g>
            <rect id="Rectangle_2242" width="9.446" height=".945" class="cls-2" data-name="Rectangle 2242" rx=".472" transform="translate(1013.488 331.432)"/>
            <rect id="Rectangle_2243" width="7.084" height=".945" class="cls-2" data-name="Rectangle 2243" rx=".472" transform="translate(1013.488 333.793)"/>
            <rect id="Rectangle_2244" width="5.904" height=".945" class="cls-2" data-name="Rectangle 2244" rx=".472" transform="translate(1013.488 336.155)"/>
        </g>
    </g>
</svg>
