<svg xmlns="http://www.w3.org/2000/svg" width="16.209" height="21.311" viewBox="0 0 16.209 21.311">
    <defs>
        <style>
            .cls-1{fill:#f77e0b}
        </style>
    </defs>
    <g id="man-user" transform="translate(-41.895)">
        <path id="Path_38464" d="M108.826 10.423c2.369 0 4.29-2.333 4.29-5.211S112.485 0 108.826 0s-4.291 2.333-4.291 5.211 1.921 5.212 4.291 5.212z" class="cls-1" data-name="Path 38464" transform="translate(-58.826)"/>
        <path id="Path_38465" d="M41.9 300.462c0-.175 0-.049 0 0z" class="cls-1" data-name="Path 38465" transform="translate(0 -282.083)"/>
        <path id="Path_38466" d="M308.085 301.646c0-.048 0-.333 0 0z" class="cls-1" data-name="Path 38466" transform="translate(-249.982 -283.129)"/>
        <path id="Path_38467" d="M58.106 185.087c-.079-5.014-.734-6.442-5.745-7.347a3.52 3.52 0 0 1-4.7 0c-4.956.894-5.651 2.3-5.742 7.184-.007.4-.011.42-.012.373v.527s1.193 2.4 8.1 2.4 8.1-2.4 8.1-2.4v-.39a3.222 3.222 0 0 1-.001-.347z" class="cls-1" data-name="Path 38467" transform="translate(-.012 -166.918)"/>
    </g>
</svg>
