<svg xmlns="http://www.w3.org/2000/svg" width="25" height="25" viewBox="0 0 25 25">
    <defs>
        <style>
            .cls-2{fill:#f77e0b}
        </style>
    </defs>
    <g id="Orders" transform="translate(-912 -178)">
        <path id="Rectangle_7205" fill="none" d="M0 0H25V25H0z" data-name="Rectangle 7205" transform="translate(912 178)"/>
        <g id="covered-food-tray-on-a-hand-of-hotel-room-service" transform="translate(909.209 163.672)">
            <g id="Group_7078" data-name="Group 7078" transform="translate(4.79 19.328)">
                <path id="Path_38400" d="M107.855 31.822c.018-.289.036-.579.073-.871a17.258 17.258 0 0 1 .375-2.067c.094-.338.2-.672.3-1l.4-.945a8.113 8.113 0 0 1 1.038-1.641c.1-.122.19-.24.282-.358s.211-.208.313-.31a7.855 7.855 0 0 1 .616-.559 8.168 8.168 0 0 1 1.191-.8 6.957 6.957 0 0 1 .977-.488c.563-.226.882-.34.882-.34s-.272.216-.748.567a10.472 10.472 0 0 0-.817.673 12.369 12.369 0 0 0-.965.942c-.174.174-.309.392-.474.593q-.12.154-.247.31c-.068.116-.139.231-.211.35a9.86 9.86 0 0 0-.777 1.533q-.147.426-.3.863c-.069.3-.146.608-.23.913a16.487 16.487 0 0 0-.3 1.921c-.037.238-.055.478-.077.72h14.9c.019-.248.03-.5.03-.75a9.143 9.143 0 0 0-7.927-9.194 1.477 1.477 0 1 0-2.013 0 9.143 9.143 0 0 0-7.926 9.194c0 .251.009.5.028.746z" class="cls-2" data-name="Path 38400" transform="translate(-104.598 -19.328)"/>
                <path id="Rectangle_2178" d="M0 0H21.121V1.863H0z" class="cls-2" data-name="Rectangle 2178" transform="translate(0 13.044)"/>
            </g>
        </g>
    </g>
</svg>
