<svg xmlns="http://www.w3.org/2000/svg" width="25" height="25" viewBox="0 0 25 25">
    <defs>
        <style>
            .cls-1{fill:none}.cls-2{fill:#f77e0b}.cls-4{fill:#c66100}
        </style>
    </defs>
    <g id="Promotions" transform="translate(-912 -306)">
        <path id="Rectangle_7208" d="M0 0H25V25H0z" class="cls-1" data-name="Rectangle 7208" transform="translate(912 306)"/>
        <g id="megaphone_1_" data-name="megaphone (1)" transform="translate(913 308)">
            <path id="Path_42251" d="M15.176 210.293l2.664 4.614-3.845 2.22a2.664 2.664 0 1 1-2.664-4.614zm0 0" class="cls-2" data-name="Path 42251" transform="translate(-9.555 -200.956)"/>
            <path id="Path_42253" d="M104.753 338.445a1.332 1.332 0 0 1-2.307 1.332l-2.446-4.23 2.307-1.332 2.442 4.23zm0 0" class="cls-1" data-name="Path 42253" transform="translate(-95.564 -319.375)"/>
            <path id="Path_42254" fill="#e9eef0" d="M335.118 108.934l.888 1.538-1.094 1.657-1.776-3.076zm0 0" data-name="Path 42254" transform="translate(-318.345 -104.097)"/>
            <path id="Path_42256" d="M122.63 290.4a.444.444 0 1 0-.606-.163.444.444 0 0 0 .606.163zm0 0" class="cls-4" data-name="Path 42256" transform="translate(-116.549 -276.718)"/>
            <path id="Path_42257" d="M4.262 38.113L6.5 41.986a1.776 1.776 0 1 0 3.074-1.776L8.242 37.9l1.158-.663a.444.444 0 0 0 .163-.607l-.577-1 8.5-1.668a1.332 1.332 0 0 0 1.08-2l-1.476-2.556.943-1.428a.444.444 0 0 0 .014-.467l-.888-1.538a.445.445 0 0 0-.411-.221l-1.708.1-1.64-2.831a1.32 1.32 0 0 0-1.137-.666h-.017a1.32 1.32 0 0 0-1.121.614l-5.8 7.389-3.771 2.177a3.108 3.108 0 0 0 2.708 5.578zM8.8 40.654a.888.888 0 0 1-1.538.888L5.047 37.7l1.538-.888L8.8 40.654zm-1-3.521l-.444-.769.769-.444.444.769zm8.728-10.474l.614 1.063-.547.829-1.058-1.832zm-4.658-3.2a.444.444 0 0 1 .763.009L17.8 32.41a.444.444 0 0 1-.374.666 1.63 1.63 0 0 0-.244.041l-5.463-9.462c.115-.147.129-.162.152-.2zm-.743.952l5.132 8.89-7.748 1.516-2.355-4.079zM1.185 36.337A2.218 2.218 0 0 1 2 33.3l3.461-2 2.22 3.845-3.461 2a2.223 2.223 0 0 1-3.033-.813zm0 0" class="cls-2" data-name="Path 42257" transform="translate(0 -21.363)"/>
            <path id="Path_42258" d="M45.492 309.795a.444.444 0 0 0-.607-.162l-.769.444a.445.445 0 0 1-.607-.163.444.444 0 0 0-.769.444 1.334 1.334 0 0 0 1.82.488l.769-.444a.444.444 0 0 0 .163-.607zm0 0" class="cls-4" data-name="Path 42258" transform="translate(-40.787 -295.827)"/>
            <path id="Path_42259" d="M438.977 42.537l-2.477 1.377a.444.444 0 1 0 .432.776l2.474-1.377a.444.444 0 0 0-.432-.776zm0 0" class="cls-2" data-name="Path 42259" transform="translate(-416.905 -40.595)"/>
            <path id="Path_42260" d="M442.338 137.1l-1.715-.46a.444.444 0 1 0-.23.858l1.716.46a.444.444 0 1 0 .23-.858zm0 0" class="cls-2" data-name="Path 42260" transform="translate(-420.525 -130.555)"/>
            <path id="Path_42261" d="M383.968.329l-.46 1.716a.444.444 0 1 0 .858.23l.46-1.716a.444.444 0 1 0-.858-.23zm0 0" class="cls-2" data-name="Path 42261" transform="translate(-366.465)"/>
        </g>
    </g>
</svg>
