<svg xmlns="http://www.w3.org/2000/svg" width="25" height="25" viewBox="0 0 25 25">
    <g id="favourites" transform="translate(-912 -265)">
        <path id="Rectangle_7207" fill="none" d="M0 0H25V25H0z" data-name="Rectangle 7207" transform="translate(912 265)"/>
        <g id="heart" transform="translate(915 240)">
            <g id="Group_7172" data-name="Group 7172" transform="translate(0 30)">
                <path id="Path_38455" fill="#f77e0b" d="M13.236 30a4.267 4.267 0 0 0-2.665.921A6.071 6.071 0 0 0 9.012 32.8a6.07 6.07 0 0 0-1.559-1.875A4.267 4.267 0 0 0 4.787 30 4.892 4.892 0 0 0 0 35.193c0 3.2 2.568 5.386 6.455 8.7.66.563 1.408 1.2 2.186 1.88a.563.563 0 0 0 .741 0c.778-.68 1.526-1.318 2.186-1.881 3.887-3.312 6.455-5.5 6.455-8.7A4.892 4.892 0 0 0 13.236 30z" data-name="Path 38455" transform="translate(0 -30)"/>
            </g>
        </g>
    </g>
</svg>
