<svg xmlns="http://www.w3.org/2000/svg" width="25" height="25" viewBox="0 0 25 25">
    <defs>
        <style>
            .cls-2{fill:#f77e0b}
        </style>
    </defs>
    <g id="Places_registered" data-name="Places registered" transform="translate(-912 -434)">
        <path id="Rectangle_7211" fill="none" d="M0 0H25V25H0z" data-name="Rectangle 7211" transform="translate(912 434)"/>
        <g id="XMLID_1321_" transform="translate(913 379.353)">
            <g id="XMLID_396_" transform="translate(0 57.647)">
                <path id="XMLID_429_" d="M23.484 63.871l-.615-1.071-2.077-3.6-.583-1a1.1 1.1 0 0 0-1.507-.4l-1.628.94a1.1 1.1 0 0 0-.5.62h-4.613a2.41 2.41 0 0 0-1.715.71l-.473.473a5.461 5.461 0 0 0-1.266-.15H7.074a1.1 1.1 0 0 0-.516-.679l-1.628-.94a1.1 1.1 0 0 0-1.507.4L.148 64.845a1.1 1.1 0 0 0 .4 1.507l1.628.94a1.1 1.1 0 0 0 .55.148 1.111 1.111 0 0 0 .2-.019l1.332 1.332a1.679 1.679 0 0 0-.031.321A1.659 1.659 0 0 0 5.8 70.731a1.686 1.686 0 0 0-.009.175 1.661 1.661 0 0 0 1.66 1.66h.036v.036a1.66 1.66 0 0 0 1.66 1.66h.036v.036a1.66 1.66 0 0 0 2.835 1.174l.657-.657a1.65 1.65 0 0 0 .405-.664 1.662 1.662 0 0 0 2.571-.844 1.661 1.661 0 0 0 2.533-1.057 1.661 1.661 0 0 0 1.7-2.75L18.8 68.423l1.966-1.966a1.112 1.112 0 0 0 .132.008 1.1 1.1 0 0 0 .55-.148l1.628-.94a1.1 1.1 0 0 0 .4-1.507zm-18.327 5.2a.733.733 0 0 1 .216-.521l.4-.4a.737.737 0 1 1 1.041 1.05l-.4.4a.737.737 0 0 1-1.259-.521zm2.3 2.57a.737.737 0 0 1-.521-1.259l.657-.657a.737.737 0 1 1 1.043 1.043l-.657.657a.733.733 0 0 1-.526.219zm1.7 1.7a.737.737 0 0 1-.521-1.259l.657-.657a.737.737 0 1 1 1.043 1.043l-.657.657a.733.733 0 0 1-.531.215zm2.874.823l-.657.657a.737.737 0 1 1-1.043-1.043l.657-.657a.737.737 0 1 1 1.043 1.043zm7.198-2.964a.737.737 0 0 1-1.043 0l-4.405-4.41a.462.462 0 1 0-.653.653l3.951 3.951a.737.737 0 0 1-1.043 1.043l-4.748-4.748a.462.462 0 0 0-.653.653l3.951 3.951a.737.737 0 1 1-1.043 1.043l-.869-.869a1.655 1.655 0 0 0-1.206-.481v-.037a1.658 1.658 0 0 0-1.7-1.659v-.037A1.659 1.659 0 0 0 7.951 68.6a1.66 1.66 0 0 0-2.833-1.1l-.4.4-1.024-1.023 3.213-5.565h1.6a4.531 4.531 0 0 1 .469.024l-.528.528a1.661 1.661 0 0 0 2.352 2.348l1.246-1.246 7.187 7.187a.738.738 0 0 1 0 1.043zm-4.435-6.783a2.619 2.619 0 0 0 1.083-2.123.462.462 0 1 0-.923 0 1.7 1.7 0 0 1-.827 1.457l-1.757-1.762a.461.461 0 0 0-.652 0l-1.575 1.575A.737.737 0 1 1 9.1 62.516l1.8-1.8a1.493 1.493 0 0 1 1.062-.44h4.731l3.254 5.636.024.039-1.818 1.818z" class="cls-2" transform="translate(0 -57.647)"/>
                <path id="XMLID_436_" d="M454.769 126.337a.462.462 0 1 0-.326-.135.466.466 0 0 0 .326.135z" class="cls-2" transform="translate(-433.339 -122.286)"/>
            </g>
        </g>
    </g>
</svg>
