<svg xmlns="http://www.w3.org/2000/svg" width="25" height="25" viewBox="0 0 25 25">
    <defs>
        <style>
            .cls-2{fill:#f77e0b}.cls-3{fill:#fff}
        </style>
    </defs>
    <g id="Reservations" transform="translate(-912 -222)">
        <path id="Rectangle_7206" fill="none" d="M0 0H25V25H0z" data-name="Rectangle 7206" transform="translate(912 222)"/>
        <g id="holidays" transform="translate(914 225)">
            <path id="Path_39244" d="M26.339 72h-.679v1.333a.673.673 0 0 1-.68.667h-.68a.673.673 0 0 1-.679-.667V72H12.075v1.333A.673.673 0 0 1 11.4 74h-.679a.673.673 0 0 1-.679-.667V72h-.684A1.346 1.346 0 0 0 8 73.333v4h19.7v-4A1.346 1.346 0 0 0 26.339 72zm-4.754 3.666h-7.472v-2h7.471z" class="cls-2" data-name="Path 39244" transform="translate(-7.667 -69)"/>
            <path id="Path_39245" d="M8 210a1.346 1.346 0 0 0 1.358 1.333h16.98A1.346 1.346 0 0 0 27.7 210v-10H8z" class="cls-3" data-name="Path 39245" transform="translate(-7.667 -191.862)"/>
            <g id="Group_7927" data-name="Group 7927" transform="translate(2.333 .333)">
                <path id="Path_39246" d="M56.667 12.666h.667A.666.666 0 0 0 58 12V8.667A.666.666 0 0 0 57.333 8h-.667a.666.666 0 0 0-.666.667V12a.666.666 0 0 0 .667.666z" class="cls-3" data-name="Path 39246" transform="translate(-56 -8)"/>
                <path id="Path_39247" d="M376.667 12.666h.667A.666.666 0 0 0 378 12V8.667a.666.666 0 0 0-.667-.667h-.667a.666.666 0 0 0-.667.667V12a.666.666 0 0 0 .668.666z" class="cls-3" data-name="Path 39247" transform="translate(-362.303 -8)"/>
            </g>
            <path id="Path_39263" d="M0 .412h7.051v1.866H0z" class="cls-3" data-name="Path 39263" transform="translate(6.656 4.147)"/>
            <path id="Path_39262" d="M0 0h2.35L2.2 1.666H.143z" class="cls-2" data-name="Path 39262" transform="translate(6.608 9.894)"/>
            <g id="Group_7928" data-name="Group 7928">
                <path id="Path_39248" d="M18.667 2.64h-.339V.99A1.006 1.006 0 0 0 17.309 0h-.679a1.006 1.006 0 0 0-1.018.99v1.65H4.751V.99A1.006 1.006 0 0 0 3.733 0h-.678a1.006 1.006 0 0 0-1.019.99v1.65H1.7A1.676 1.676 0 0 0 0 4.291v13.862A1.676 1.676 0 0 0 1.7 19.8h16.97a1.676 1.676 0 0 0 1.7-1.65V4.291a1.676 1.676 0 0 0-1.703-1.651zM16.291.99a.335.335 0 0 1 .339-.33h.679a.335.335 0 0 1 .339.33v3.3a.335.335 0 0 1-.339.33h-.679a.335.335 0 0 1-.339-.33V.99zM2.715.99a.335.335 0 0 1 .34-.33h.679a.335.335 0 0 1 .339.33v3.3a.335.335 0 0 1-.339.33h-.679a.335.335 0 0 1-.339-.33V.99zM1.7 3.3h.339v.99a1.006 1.006 0 0 0 1.018.99h.679a1.006 1.006 0 0 0 1.018-.99V3.3h10.858v.99a1.006 1.006 0 0 0 1.018.99h.679a1.006 1.006 0 0 0 1.018-.99V3.3h.339a1.006 1.006 0 0 1 1.018.99v3.631H.679v-3.63A1.006 1.006 0 0 1 1.7 3.3zm16.97 15.843H1.7a1.006 1.006 0 0 1-1.018-.99V8.581h19.003v9.572a1.006 1.006 0 0 1-1.018.99z" class="cls-2" data-name="Path 39248"/>
                <path id="Path_39249" d="M144.333 106.666h7.333a.333.333 0 0 0 .333-.333v-2a.333.333 0 0 0-.333-.333h-7.333a.333.333 0 0 0-.333.333v2a.333.333 0 0 0 .333.333zm.333-2h6.666V106h-6.666z" class="cls-2" data-name="Path 39249" transform="translate(-137.818 -99.716)"/>
                <path id="Path_39250" d="M50.333 232h-2a.333.333 0 0 0-.333.333V234a.333.333 0 0 0 .333.333h2a.333.333 0 0 0 .333-.333v-1.667a.333.333 0 0 0-.333-.333zM50 233.667h-1.333v-1H50z" class="cls-2" data-name="Path 39250" transform="translate(-46 -222.441)"/>
                <path id="Path_39251" d="M154.333 232h-2a.333.333 0 0 0-.333.333V234a.333.333 0 0 0 .333.333h2a.333.333 0 0 0 .333-.333v-1.667a.333.333 0 0 0-.333-.333zm-.333 1.667h-1.333v-1H154z" class="cls-2" data-name="Path 39251" transform="translate(-145.534 -222.441)"/>
                <path id="Path_39252" d="M264.333 234.333h2a.333.333 0 0 0 .333-.333v-1.667a.333.333 0 0 0-.333-.333h-2a.333.333 0 0 0-.333.333V234a.333.333 0 0 0 .333.333zm.333-1.667H266v1h-1.333z" class="cls-2" data-name="Path 39252" transform="translate(-252.769 -222.441)"/>
                <path id="Path_39253" d="M370.333 232h-2a.333.333 0 0 0-.333.333V234a.333.333 0 0 0 .333.333h2a.333.333 0 0 0 .333-.333v-1.667a.333.333 0 0 0-.333-.333zm-.333 1.667h-1.333v-1H370z" class="cls-2" data-name="Path 39253" transform="translate(-352.303 -222.441)"/>
                <path id="Path_39254" d="M50.333 312h-2a.333.333 0 0 0-.333.333V314a.333.333 0 0 0 .333.333h2a.333.333 0 0 0 .333-.333v-1.667a.333.333 0 0 0-.333-.333zM50 313.667h-1.333v-1H50z" class="cls-2" data-name="Path 39254" transform="translate(-46 -299.145)"/>
                <path id="Path_39255" d="M154.333 312h-2a.333.333 0 0 0-.333.333V314a.333.333 0 0 0 .333.333h2a.333.333 0 0 0 .333-.333v-1.667a.333.333 0 0 0-.333-.333zm-.333 1.667h-1.333v-1H154z" class="cls-2" data-name="Path 39255" transform="translate(-145.534 -299.145)"/>
                <path id="Path_39256" d="M264.333 314.333h2a.333.333 0 0 0 .333-.333v-1.667a.333.333 0 0 0-.333-.333h-2a.333.333 0 0 0-.333.333V314a.333.333 0 0 0 .333.333zm.333-1.667H266v1h-1.333z" class="cls-2" data-name="Path 39256" transform="translate(-252.769 -299.145)"/>
                <path id="Path_39257" d="M370.333 312h-2a.333.333 0 0 0-.333.333V314a.333.333 0 0 0 .333.333h2a.333.333 0 0 0 .333-.333v-1.667a.333.333 0 0 0-.333-.333zm-.333 1.667h-1.333v-1H370z" class="cls-2" data-name="Path 39257" transform="translate(-352.303 -299.145)"/>
                <path id="Path_39258" d="M50.333 392h-2a.333.333 0 0 0-.333.333V394a.333.333 0 0 0 .333.333h2a.333.333 0 0 0 .333-.333v-1.667a.333.333 0 0 0-.333-.333zM50 393.667h-1.333v-1H50z" class="cls-2" data-name="Path 39258" transform="translate(-46 -375.863)"/>
                <path id="Path_39259" d="M154.333 392h-2a.333.333 0 0 0-.333.333V394a.333.333 0 0 0 .333.333h2a.333.333 0 0 0 .333-.333v-1.667a.333.333 0 0 0-.333-.333zm-.333 1.667h-1.333v-1H154z" class="cls-2" data-name="Path 39259" transform="translate(-145.534 -375.863)"/>
                <path id="Path_39260" d="M259.557 388.6l-.742-.742-.471.471 1 1a.331.331 0 0 0 .236.1h.015a.336.336 0 0 0 .241-.119l1.666-2-.512-.427z" class="cls-2" data-name="Path 39260" transform="translate(-247.347 -370.956)"/>
                <path id="Path_39261" d="M355.557 388.6l-.742-.742-.471.471 1 1a.331.331 0 0 0 .236.1h.015a.335.335 0 0 0 .241-.119l1.667-2-.512-.427z" class="cls-2" data-name="Path 39261" transform="translate(-339.216 -370.956)"/>
            </g>
        </g>
    </g>
</svg>
