<svg xmlns="http://www.w3.org/2000/svg" width="25" height="25" viewBox="0 0 25 25">
    <g id="settings" transform="translate(-912 -531)">
        <path id="Rectangle_7213" fill="none" d="M0 0H25V25H0z" data-name="Rectangle 7213" transform="translate(912 531)"/>
        <g id="settings-gears" transform="translate(914.999 529.263)">
            <path id="Path_38534" fill="#f77e0b" d="M2.05 16.014a7.6 7.6 0 0 0 .68 1.614l-.82 1.035a.849.849 0 0 0 .064 1.125L3.386 21.2a.845.845 0 0 0 1.125.064l1.028-.814a7.468 7.468 0 0 0 1.677.71l.154 1.323a.847.847 0 0 0 .84.75h2a.847.847 0 0 0 .84-.75l.147-1.276a7.554 7.554 0 0 0 1.8-.727l.994.787a.849.849 0 0 0 1.125-.064l1.413-1.413a.845.845 0 0 0 .064-1.125l-.773-.981a7.379 7.379 0 0 0 .74-1.768l1.192-.137a.847.847 0 0 0 .75-.84v-2a.847.847 0 0 0-.75-.84l-1.175-.137a7.427 7.427 0 0 0-.71-1.748l.723-.914a.849.849 0 0 0-.064-1.125l-1.41-1.41A.845.845 0 0 0 13.99 6.7l-.887.7a7.452 7.452 0 0 0-1.838-.77l-.134-1.148a.847.847 0 0 0-.84-.75h-2a.847.847 0 0 0-.84.75l-.134 1.154a7.421 7.421 0 0 0-1.885.8L4.511 6.7a.849.849 0 0 0-1.125.064L1.973 8.179A.845.845 0 0 0 1.91 9.3l.77.974a7.284 7.284 0 0 0-.7 1.765l-1.232.141a.847.847 0 0 0-.75.84v2a.847.847 0 0 0 .75.84zm7.242-5.407a3.3 3.3 0 1 1-3.3 3.3 3.31 3.31 0 0 1 3.3-3.3z" data-name="Path 38534"/>
        </g>
    </g>
</svg>
